<mxfile host="65bd71144e" pages="3">
    <diagram name="Page-1" id="NP0IGY9QcF5OJb9P8qif">
        <mxGraphModel dx="584" dy="283" grid="1" gridSize="10" guides="1" tooltips="1" connect="1" arrows="1" fold="1" page="1" pageScale="1" pageWidth="827" pageHeight="1169" math="0" shadow="0">
            <root>
                <mxCell id="0"/>
                <mxCell id="1" parent="0"/>
                <mxCell id="LalYOXQxGZXRVZVDWcl1-1" value="Prev" style="rounded=0;whiteSpace=wrap;html=1;fontStyle=1" parent="1" vertex="1">
                    <mxGeometry x="150" y="190" width="30" height="60" as="geometry"/>
                </mxCell>
                <mxCell id="LalYOXQxGZXRVZVDWcl1-2" value="56" style="rounded=0;whiteSpace=wrap;html=1;fontStyle=1" parent="1" vertex="1">
                    <mxGeometry x="180" y="190" width="80" height="60" as="geometry"/>
                </mxCell>
                <mxCell id="LalYOXQxGZXRVZVDWcl1-3" value="Next" style="rounded=0;whiteSpace=wrap;html=1;fontStyle=1" parent="1" vertex="1">
                    <mxGeometry x="260" y="190" width="30" height="60" as="geometry"/>
                </mxCell>
                <mxCell id="LalYOXQxGZXRVZVDWcl1-8" value="Prev" style="rounded=0;whiteSpace=wrap;html=1;fontStyle=1" parent="1" vertex="1">
                    <mxGeometry x="390" y="190" width="30" height="60" as="geometry"/>
                </mxCell>
                <mxCell id="LalYOXQxGZXRVZVDWcl1-9" value="31" style="rounded=0;whiteSpace=wrap;html=1;fontStyle=1" parent="1" vertex="1">
                    <mxGeometry x="420" y="190" width="80" height="60" as="geometry"/>
                </mxCell>
                <mxCell id="LalYOXQxGZXRVZVDWcl1-10" value="Next" style="rounded=0;whiteSpace=wrap;html=1;fontStyle=1" parent="1" vertex="1">
                    <mxGeometry x="500" y="190" width="30" height="60" as="geometry"/>
                </mxCell>
                <mxCell id="LalYOXQxGZXRVZVDWcl1-11" value="Prev" style="rounded=0;whiteSpace=wrap;html=1;fontStyle=1" parent="1" vertex="1">
                    <mxGeometry x="590" y="190" width="30" height="60" as="geometry"/>
                </mxCell>
                <mxCell id="LalYOXQxGZXRVZVDWcl1-12" value="925&lt;br&gt;" style="rounded=0;whiteSpace=wrap;html=1;fontStyle=1" parent="1" vertex="1">
                    <mxGeometry x="620" y="190" width="80" height="60" as="geometry"/>
                </mxCell>
                <mxCell id="LalYOXQxGZXRVZVDWcl1-13" value="Next" style="rounded=0;whiteSpace=wrap;html=1;fontStyle=1" parent="1" vertex="1">
                    <mxGeometry x="700" y="190" width="30" height="60" as="geometry"/>
                </mxCell>
                <mxCell id="LalYOXQxGZXRVZVDWcl1-15" value="" style="endArrow=classic;html=1;rounded=0;exitX=1;exitY=0.5;exitDx=0;exitDy=0;" parent="1" source="LalYOXQxGZXRVZVDWcl1-3" target="LalYOXQxGZXRVZVDWcl1-24" edge="1">
                    <mxGeometry width="50" height="50" relative="1" as="geometry">
                        <mxPoint x="390" y="310" as="sourcePoint"/>
                        <mxPoint x="440" y="260" as="targetPoint"/>
                        <Array as="points">
                            <mxPoint x="360" y="260"/>
                        </Array>
                    </mxGeometry>
                </mxCell>
                <mxCell id="LalYOXQxGZXRVZVDWcl1-17" value="" style="endArrow=classic;html=1;rounded=0;" parent="1" source="LalYOXQxGZXRVZVDWcl1-8" target="LalYOXQxGZXRVZVDWcl1-24" edge="1">
                    <mxGeometry width="50" height="50" relative="1" as="geometry">
                        <mxPoint x="390" y="310" as="sourcePoint"/>
                        <mxPoint x="440" y="260" as="targetPoint"/>
                        <Array as="points"/>
                    </mxGeometry>
                </mxCell>
                <mxCell id="LalYOXQxGZXRVZVDWcl1-18" value="" style="endArrow=classic;html=1;rounded=0;fontStyle=1" parent="1" source="LalYOXQxGZXRVZVDWcl1-10" target="LalYOXQxGZXRVZVDWcl1-12" edge="1">
                    <mxGeometry width="50" height="50" relative="1" as="geometry">
                        <mxPoint x="300" y="230" as="sourcePoint"/>
                        <mxPoint x="470" y="200" as="targetPoint"/>
                        <Array as="points">
                            <mxPoint x="590" y="130"/>
                        </Array>
                    </mxGeometry>
                </mxCell>
                <mxCell id="LalYOXQxGZXRVZVDWcl1-19" value="" style="endArrow=classic;html=1;rounded=0;" parent="1" source="LalYOXQxGZXRVZVDWcl1-12" target="LalYOXQxGZXRVZVDWcl1-9" edge="1">
                    <mxGeometry width="50" height="50" relative="1" as="geometry">
                        <mxPoint x="540" y="212" as="sourcePoint"/>
                        <mxPoint x="647" y="200" as="targetPoint"/>
                        <Array as="points">
                            <mxPoint x="540" y="350"/>
                        </Array>
                    </mxGeometry>
                </mxCell>
                <mxCell id="LalYOXQxGZXRVZVDWcl1-21" value="Head" style="text;html=1;strokeColor=none;fillColor=none;align=center;verticalAlign=middle;whiteSpace=wrap;rounded=0;" parent="1" vertex="1">
                    <mxGeometry x="180" y="150" width="60" height="30" as="geometry"/>
                </mxCell>
                <mxCell id="LalYOXQxGZXRVZVDWcl1-22" value="Tail" style="text;html=1;strokeColor=none;fillColor=none;align=center;verticalAlign=middle;whiteSpace=wrap;rounded=0;" parent="1" vertex="1">
                    <mxGeometry x="650" y="150" width="60" height="30" as="geometry"/>
                </mxCell>
                <mxCell id="LalYOXQxGZXRVZVDWcl1-23" value="Prev" style="rounded=0;whiteSpace=wrap;html=1;fontStyle=1" parent="1" vertex="1">
                    <mxGeometry x="320" y="330" width="30" height="60" as="geometry"/>
                </mxCell>
                <mxCell id="LalYOXQxGZXRVZVDWcl1-24" value="6" style="rounded=0;whiteSpace=wrap;html=1;fontStyle=1" parent="1" vertex="1">
                    <mxGeometry x="350" y="330" width="80" height="60" as="geometry"/>
                </mxCell>
                <mxCell id="LalYOXQxGZXRVZVDWcl1-25" value="Next" style="rounded=0;whiteSpace=wrap;html=1;fontStyle=1" parent="1" vertex="1">
                    <mxGeometry x="430" y="330" width="30" height="60" as="geometry"/>
                </mxCell>
                <mxCell id="LalYOXQxGZXRVZVDWcl1-26" value="" style="endArrow=classic;html=1;rounded=0;" parent="1" source="LalYOXQxGZXRVZVDWcl1-23" target="LalYOXQxGZXRVZVDWcl1-2" edge="1">
                    <mxGeometry width="50" height="50" relative="1" as="geometry">
                        <mxPoint x="380" y="280" as="sourcePoint"/>
                        <mxPoint x="430" y="230" as="targetPoint"/>
                    </mxGeometry>
                </mxCell>
                <mxCell id="LalYOXQxGZXRVZVDWcl1-27" value="" style="endArrow=classic;html=1;rounded=0;" parent="1" source="LalYOXQxGZXRVZVDWcl1-25" target="LalYOXQxGZXRVZVDWcl1-9" edge="1">
                    <mxGeometry width="50" height="50" relative="1" as="geometry">
                        <mxPoint x="412" y="260" as="sourcePoint"/>
                        <mxPoint x="403" y="340" as="targetPoint"/>
                        <Array as="points"/>
                    </mxGeometry>
                </mxCell>
            </root>
        </mxGraphModel>
    </diagram>
    <diagram id="xSqx4w_NNPDwo3YHBRpM" name="Page-2">
        <mxGraphModel dx="584" dy="283" grid="1" gridSize="10" guides="1" tooltips="1" connect="1" arrows="1" fold="1" page="1" pageScale="1" pageWidth="827" pageHeight="1169" math="0" shadow="0">
            <root>
                <mxCell id="0"/>
                <mxCell id="1" parent="0"/>
                <mxCell id="xuw5zCE6RppPVihWjLqr-1" value="&lt;font style=&quot;font-size: 20px;&quot;&gt;A&lt;/font&gt;" style="ellipse;whiteSpace=wrap;html=1;aspect=fixed;fontStyle=1;fontSize=13;" parent="1" vertex="1">
                    <mxGeometry x="400" y="40" width="40" height="40" as="geometry"/>
                </mxCell>
                <mxCell id="xuw5zCE6RppPVihWjLqr-2" value="&lt;font style=&quot;font-size: 20px;&quot;&gt;B&lt;/font&gt;" style="ellipse;whiteSpace=wrap;html=1;aspect=fixed;fontStyle=1;fontSize=13;" parent="1" vertex="1">
                    <mxGeometry x="280" y="80" width="40" height="40" as="geometry"/>
                </mxCell>
                <mxCell id="xuw5zCE6RppPVihWjLqr-3" value="&lt;font style=&quot;font-size: 20px;&quot;&gt;C&lt;/font&gt;" style="ellipse;whiteSpace=wrap;html=1;aspect=fixed;fontStyle=1;fontSize=13;" parent="1" vertex="1">
                    <mxGeometry x="520" y="80" width="40" height="40" as="geometry"/>
                </mxCell>
                <mxCell id="xuw5zCE6RppPVihWjLqr-4" value="&lt;font style=&quot;font-size: 20px;&quot;&gt;D&lt;/font&gt;" style="ellipse;whiteSpace=wrap;html=1;aspect=fixed;fontStyle=1;fontSize=13;" parent="1" vertex="1">
                    <mxGeometry x="160" y="120" width="40" height="40" as="geometry"/>
                </mxCell>
                <mxCell id="xuw5zCE6RppPVihWjLqr-6" value="" style="endArrow=none;html=1;rounded=0;" parent="1" source="xuw5zCE6RppPVihWjLqr-2" target="xuw5zCE6RppPVihWjLqr-1" edge="1">
                    <mxGeometry width="50" height="50" relative="1" as="geometry">
                        <mxPoint x="390" y="300" as="sourcePoint"/>
                        <mxPoint x="440" y="250" as="targetPoint"/>
                    </mxGeometry>
                </mxCell>
                <mxCell id="xuw5zCE6RppPVihWjLqr-7" value="" style="endArrow=none;html=1;rounded=0;" parent="1" source="xuw5zCE6RppPVihWjLqr-4" target="xuw5zCE6RppPVihWjLqr-2" edge="1">
                    <mxGeometry width="50" height="50" relative="1" as="geometry">
                        <mxPoint x="368" y="101" as="sourcePoint"/>
                        <mxPoint x="412" y="79" as="targetPoint"/>
                    </mxGeometry>
                </mxCell>
                <mxCell id="xuw5zCE6RppPVihWjLqr-8" value="" style="endArrow=none;html=1;rounded=0;" parent="1" source="xuw5zCE6RppPVihWjLqr-3" target="xuw5zCE6RppPVihWjLqr-1" edge="1">
                    <mxGeometry width="50" height="50" relative="1" as="geometry">
                        <mxPoint x="430" y="190" as="sourcePoint"/>
                        <mxPoint x="332" y="119" as="targetPoint"/>
                    </mxGeometry>
                </mxCell>
                <mxCell id="xuw5zCE6RppPVihWjLqr-9" value="&lt;font style=&quot;font-size: 20px;&quot;&gt;E&lt;/font&gt;" style="ellipse;whiteSpace=wrap;html=1;aspect=fixed;fontStyle=1;fontSize=13;" parent="1" vertex="1">
                    <mxGeometry x="360" y="120" width="40" height="40" as="geometry"/>
                </mxCell>
                <mxCell id="xuw5zCE6RppPVihWjLqr-10" value="" style="endArrow=none;html=1;rounded=0;" parent="1" source="xuw5zCE6RppPVihWjLqr-9" target="xuw5zCE6RppPVihWjLqr-2" edge="1">
                    <mxGeometry width="50" height="50" relative="1" as="geometry">
                        <mxPoint x="370" y="150" as="sourcePoint"/>
                        <mxPoint x="420" y="100" as="targetPoint"/>
                    </mxGeometry>
                </mxCell>
                <mxCell id="xuw5zCE6RppPVihWjLqr-12" value="&lt;font style=&quot;font-size: 20px;&quot;&gt;F&lt;/font&gt;" style="ellipse;whiteSpace=wrap;html=1;aspect=fixed;fontStyle=1;fontSize=13;" parent="1" vertex="1">
                    <mxGeometry x="440" y="120" width="40" height="40" as="geometry"/>
                </mxCell>
                <mxCell id="xuw5zCE6RppPVihWjLqr-13" value="" style="endArrow=none;html=1;rounded=0;" parent="1" source="xuw5zCE6RppPVihWjLqr-12" target="xuw5zCE6RppPVihWjLqr-3" edge="1">
                    <mxGeometry width="50" height="50" relative="1" as="geometry">
                        <mxPoint x="370" y="150" as="sourcePoint"/>
                        <mxPoint x="420" y="100" as="targetPoint"/>
                    </mxGeometry>
                </mxCell>
            </root>
        </mxGraphModel>
    </diagram>
    <diagram name="Copy of Page-2" id="QVoZbWSH5V3L0LkNBzAl">
        <mxGraphModel dx="520" dy="404" grid="1" gridSize="10" guides="1" tooltips="1" connect="1" arrows="1" fold="1" page="1" pageScale="1" pageWidth="827" pageHeight="1169" math="0" shadow="0">
            <root>
                <mxCell id="hrKfpTb4RWWmjKhqfqVy-0"/>
                <mxCell id="hrKfpTb4RWWmjKhqfqVy-1" parent="hrKfpTb4RWWmjKhqfqVy-0"/>
                <mxCell id="hrKfpTb4RWWmjKhqfqVy-2" value="&lt;font style=&quot;font-size: 20px;&quot;&gt;A&lt;/font&gt;" style="ellipse;whiteSpace=wrap;html=1;aspect=fixed;fontStyle=1;fontSize=13;" parent="hrKfpTb4RWWmjKhqfqVy-1" vertex="1">
                    <mxGeometry x="220" y="230" width="40" height="40" as="geometry"/>
                </mxCell>
                <mxCell id="hrKfpTb4RWWmjKhqfqVy-3" value="&lt;font style=&quot;font-size: 20px;&quot;&gt;B&lt;/font&gt;" style="ellipse;whiteSpace=wrap;html=1;aspect=fixed;fontStyle=1;fontSize=13;" parent="hrKfpTb4RWWmjKhqfqVy-1" vertex="1">
                    <mxGeometry x="330" y="370" width="40" height="40" as="geometry"/>
                </mxCell>
                <mxCell id="hrKfpTb4RWWmjKhqfqVy-4" value="&lt;font style=&quot;font-size: 20px;&quot;&gt;C&lt;/font&gt;" style="ellipse;whiteSpace=wrap;html=1;aspect=fixed;fontStyle=1;fontSize=13;" parent="hrKfpTb4RWWmjKhqfqVy-1" vertex="1">
                    <mxGeometry x="310" y="170" width="40" height="40" as="geometry"/>
                </mxCell>
                <mxCell id="hrKfpTb4RWWmjKhqfqVy-5" value="&lt;font style=&quot;font-size: 20px;&quot;&gt;D&lt;/font&gt;" style="ellipse;whiteSpace=wrap;html=1;aspect=fixed;fontStyle=1;fontSize=13;" parent="hrKfpTb4RWWmjKhqfqVy-1" vertex="1">
                    <mxGeometry x="450" y="160" width="40" height="40" as="geometry"/>
                </mxCell>
                <mxCell id="hrKfpTb4RWWmjKhqfqVy-6" value="1" style="endArrow=none;html=1;rounded=0;fontSize=26;fontStyle=1" parent="hrKfpTb4RWWmjKhqfqVy-1" source="hrKfpTb4RWWmjKhqfqVy-3" target="hrKfpTb4RWWmjKhqfqVy-2" edge="1">
                    <mxGeometry width="50" height="50" relative="1" as="geometry">
                        <mxPoint x="390" y="300" as="sourcePoint"/>
                        <mxPoint x="440" y="250" as="targetPoint"/>
                    </mxGeometry>
                </mxCell>
                <mxCell id="hmxQl7nroX_c6PbWQVex-4" value="1" style="edgeLabel;html=1;align=center;verticalAlign=middle;resizable=0;points=[];" parent="hrKfpTb4RWWmjKhqfqVy-6" vertex="1" connectable="0">
                    <mxGeometry x="0.4386" y="3" relative="1" as="geometry">
                        <mxPoint as="offset"/>
                    </mxGeometry>
                </mxCell>
                <mxCell id="hrKfpTb4RWWmjKhqfqVy-7" value="4" style="endArrow=none;html=1;rounded=0;fontSize=16;" parent="hrKfpTb4RWWmjKhqfqVy-1" source="hmxQl7nroX_c6PbWQVex-2" target="hrKfpTb4RWWmjKhqfqVy-3" edge="1">
                    <mxGeometry width="50" height="50" relative="1" as="geometry">
                        <mxPoint x="368" y="101" as="sourcePoint"/>
                        <mxPoint x="412" y="79" as="targetPoint"/>
                    </mxGeometry>
                </mxCell>
                <mxCell id="hmxQl7nroX_c6PbWQVex-7" value="4" style="edgeLabel;html=1;align=center;verticalAlign=middle;resizable=0;points=[];fontStyle=1;fontSize=26;" parent="hrKfpTb4RWWmjKhqfqVy-7" vertex="1" connectable="0">
                    <mxGeometry x="-0.288" relative="1" as="geometry">
                        <mxPoint as="offset"/>
                    </mxGeometry>
                </mxCell>
                <mxCell id="hrKfpTb4RWWmjKhqfqVy-8" value="2" style="endArrow=none;html=1;rounded=0;fontSize=26;fontStyle=1" parent="hrKfpTb4RWWmjKhqfqVy-1" source="hrKfpTb4RWWmjKhqfqVy-4" target="hrKfpTb4RWWmjKhqfqVy-2" edge="1">
                    <mxGeometry width="50" height="50" relative="1" as="geometry">
                        <mxPoint x="430" y="190" as="sourcePoint"/>
                        <mxPoint x="332" y="119" as="targetPoint"/>
                    </mxGeometry>
                </mxCell>
                <mxCell id="hrKfpTb4RWWmjKhqfqVy-9" value="&lt;font style=&quot;font-size: 20px;&quot;&gt;E&lt;/font&gt;" style="ellipse;whiteSpace=wrap;html=1;aspect=fixed;fontStyle=1;fontSize=13;" parent="hrKfpTb4RWWmjKhqfqVy-1" vertex="1">
                    <mxGeometry x="550" y="260" width="40" height="40" as="geometry"/>
                </mxCell>
                <mxCell id="hrKfpTb4RWWmjKhqfqVy-10" value="3" style="endArrow=none;html=1;rounded=0;fontSize=26;fontStyle=1" parent="hrKfpTb4RWWmjKhqfqVy-1" source="hrKfpTb4RWWmjKhqfqVy-9" target="hrKfpTb4RWWmjKhqfqVy-3" edge="1">
                    <mxGeometry width="50" height="50" relative="1" as="geometry">
                        <mxPoint x="370" y="150" as="sourcePoint"/>
                        <mxPoint x="420" y="100" as="targetPoint"/>
                    </mxGeometry>
                </mxCell>
                <mxCell id="hmxQl7nroX_c6PbWQVex-6" value="3" style="edgeLabel;html=1;align=center;verticalAlign=middle;resizable=0;points=[];" parent="hrKfpTb4RWWmjKhqfqVy-10" vertex="1" connectable="0">
                    <mxGeometry x="0.3778" y="2" relative="1" as="geometry">
                        <mxPoint as="offset"/>
                    </mxGeometry>
                </mxCell>
                <mxCell id="hrKfpTb4RWWmjKhqfqVy-12" value="5" style="endArrow=none;html=1;rounded=0;fontSize=26;fontStyle=1" parent="hrKfpTb4RWWmjKhqfqVy-1" source="hrKfpTb4RWWmjKhqfqVy-5" target="hrKfpTb4RWWmjKhqfqVy-4" edge="1">
                    <mxGeometry width="50" height="50" relative="1" as="geometry">
                        <mxPoint x="480.29383959200504" y="163.41573447071914" as="sourcePoint"/>
                        <mxPoint x="420" y="100" as="targetPoint"/>
                    </mxGeometry>
                </mxCell>
                <mxCell id="hmxQl7nroX_c6PbWQVex-8" value="5" style="edgeLabel;html=1;align=center;verticalAlign=middle;resizable=0;points=[];" parent="hrKfpTb4RWWmjKhqfqVy-12" vertex="1" connectable="0">
                    <mxGeometry x="0.0029" y="2" relative="1" as="geometry">
                        <mxPoint as="offset"/>
                    </mxGeometry>
                </mxCell>
                <mxCell id="hmxQl7nroX_c6PbWQVex-0" value="7" style="endArrow=none;html=1;rounded=0;fontSize=26;fontStyle=1" parent="hrKfpTb4RWWmjKhqfqVy-1" source="hrKfpTb4RWWmjKhqfqVy-5" target="hrKfpTb4RWWmjKhqfqVy-9" edge="1">
                    <mxGeometry width="50" height="50" relative="1" as="geometry">
                        <mxPoint x="440" y="200" as="sourcePoint"/>
                        <mxPoint x="360" y="200" as="targetPoint"/>
                    </mxGeometry>
                </mxCell>
                <mxCell id="hmxQl7nroX_c6PbWQVex-11" value="7" style="edgeLabel;html=1;align=center;verticalAlign=middle;resizable=0;points=[];" parent="hmxQl7nroX_c6PbWQVex-0" vertex="1" connectable="0">
                    <mxGeometry x="0.1394" relative="1" as="geometry">
                        <mxPoint as="offset"/>
                    </mxGeometry>
                </mxCell>
                <mxCell id="hmxQl7nroX_c6PbWQVex-1" value="Depth-first search: B, E, D, C, F" style="rounded=0;whiteSpace=wrap;html=1;fontSize=19;fontStyle=1;align=left;" parent="hrKfpTb4RWWmjKhqfqVy-1" vertex="1">
                    <mxGeometry x="260" y="30" width="400" height="60" as="geometry"/>
                </mxCell>
                <mxCell id="hmxQl7nroX_c6PbWQVex-2" value="&lt;span style=&quot;font-size: 20px;&quot;&gt;F&lt;/span&gt;" style="ellipse;whiteSpace=wrap;html=1;aspect=fixed;fontStyle=1;fontSize=13;" parent="hrKfpTb4RWWmjKhqfqVy-1" vertex="1">
                    <mxGeometry x="374" y="250" width="40" height="40" as="geometry"/>
                </mxCell>
                <mxCell id="hmxQl7nroX_c6PbWQVex-3" value="6" style="endArrow=none;html=1;rounded=0;fontSize=26;fontStyle=1" parent="hrKfpTb4RWWmjKhqfqVy-1" source="hrKfpTb4RWWmjKhqfqVy-5" target="hmxQl7nroX_c6PbWQVex-2" edge="1">
                    <mxGeometry width="50" height="50" relative="1" as="geometry">
                        <mxPoint x="369" y="290" as="sourcePoint"/>
                        <mxPoint x="362" y="380" as="targetPoint"/>
                    </mxGeometry>
                </mxCell>
                <mxCell id="hmxQl7nroX_c6PbWQVex-10" value="6" style="edgeLabel;html=1;align=center;verticalAlign=middle;resizable=0;points=[];" parent="hmxQl7nroX_c6PbWQVex-3" vertex="1" connectable="0">
                    <mxGeometry x="-0.0828" y="4" relative="1" as="geometry">
                        <mxPoint as="offset"/>
                    </mxGeometry>
                </mxCell>
            </root>
        </mxGraphModel>
    </diagram>
</mxfile>